<svg width="24" height="24" xmlns="http://www.w3.org/2000/svg">

 <g>
  <title>background</title>
  <rect fill="none" id="canvas_background" height="402" width="582" y="-1" x="-1"/>
 </g>
 <g>
  <title>Layer 1</title>
  <g id="svg_1" fill-rule="nonzero" fill="%23FFF">
   <path fill="#ffffff" id="svg_2" d="m6,11.5l5.688,0a3.75,3.75 0 1 0 -1.95,-6.954a0.75,0.75 0 0 0 0.781,1.28a2.25,2.25 0 1 1 1.169,4.174l-5.688,0.001a0.75,0.75 0 1 0 0,1.5l0,-0.001zm-4,3.5l9.966,0a1.5,1.5 0 1 1 -0.779,2.782a0.75,0.75 0 0 0 -0.78,1.281a3,3 0 1 0 1.56,-5.563l-9.968,0a0.75,0.75 0 1 0 0.001,1.5zm14.667,-2l2.251,0a3,3 0 1 0 -1.56,-5.563a0.75,0.75 0 0 0 0.781,1.28a1.5,1.5 0 1 1 0.779,2.782l-2.251,0.001a0.75,0.75 0 1 0 0,1.5z"/>
  </g>
 </g>
</svg>